<svg xmlns="http://www.w3.org/2000/svg" width="1600" height="600" viewBox="0 0 1600 600" fill="none">
    <defs>
      <linearGradient id="gradMain" x1="0" y1="0" x2="1" y2="1">
        <stop offset="0%" stop-color="#06B6D4"/>
        <stop offset="55%" stop-color="#7C3AED"/>
        <stop offset="100%" stop-color="#22C55E"/>
      </linearGradient>
      <linearGradient id="gradSoft" x1="0" y1="0" x2="1" y2="1">
        <stop offset="0%" stop-color="#111827"/>
        <stop offset="100%" stop-color="#0B1220"/>
      </linearGradient>
      <filter id="glow" x="-50%" y="-50%" width="200%" height="200%">
        <feGaussianBlur stdDeviation="8" result="blur"/>
        <feMerge>
          <feMergeNode in="blur"/>
          <feMergeNode in="SourceGraphic"/>
        </feMerge>
      </filter>
      <filter id="softGlow" x="-50%" y="-50%" width="200%" height="200%">
        <feGaussianBlur stdDeviation="18" result="blur"/>
        <feColorMatrix in="blur" type="matrix"
            values="1 0 0 0 0
                    0 1 0 0 0
                    0 0 1 0 0
                    0 0 0 0.22 0"/>
        <feBlend in="SourceGraphic" mode="screen"/>
      </filter>
      <style>
        .title { font: 700 64px Inter, ui-sans-serif, system-ui, -apple-system, Segoe UI, Roboto, Helvetica, Arial, sans-serif; letter-spacing: -1.4px; }
        .subtitle { font: 500 22px Inter, ui-sans-serif, system-ui, -apple-system, Segoe UI, Roboto, Helvetica, Arial, sans-serif; letter-spacing: 0.1px; }
        .wordmark { font: 760 56px Inter, ui-sans-serif, system-ui, -apple-system, Segoe UI, Roboto, Helvetica, Arial, sans-serif; letter-spacing: -1.2px; }
        .small { font: 600 24px Inter, ui-sans-serif, system-ui, -apple-system, Segoe UI, Roboto, Helvetica, Arial, sans-serif; letter-spacing: 1.8px; text-transform: uppercase; }
      </style>
    </defs>
    
    <rect width="1600" height="600" rx="28" fill="#0B1220"/>
    <rect width="1600" height="600" rx="28" fill="url(#gradSoft)"/>
    <circle cx="1420" cy="90" r="220" fill="#7C3AED" opacity="0.08"/>
    <circle cx="1220" cy="520" r="260" fill="#06B6D4" opacity="0.06"/>
    <circle cx="300" cy="20" r="200" fill="#22C55E" opacity="0.04"/>
    <path d="M0 480 C 260 390, 470 580, 740 500 C 1040 410, 1240 510, 1600 430 L1600 600 L0 600 Z" fill="#0E1728" opacity="0.86"/>
    <path d="M0 520 C 230 470, 460 590, 740 550 C 1020 510, 1270 560, 1600 510" stroke="#243244" stroke-width="2" opacity="0.8"/>
    
      <g filter="url(#softGlow)">
        <circle cx="300" cy="290" r="142.6" fill="url(#gradMain)" opacity="0.06"/>
      </g>
      <line x1="300" y1="290" x2="300.0" y2="175.3" stroke="url(#gradMain)" stroke-width="10.85" stroke-linecap="round" opacity="0.9"/>
<line x1="300" y1="290" x2="409.1" y2="254.6" stroke="url(#gradMain)" stroke-width="10.85" stroke-linecap="round" opacity="0.9"/>
<line x1="300" y1="290" x2="367.4" y2="382.8" stroke="url(#gradMain)" stroke-width="10.85" stroke-linecap="round" opacity="0.9"/>
<line x1="300" y1="290" x2="232.6" y2="382.8" stroke="url(#gradMain)" stroke-width="10.85" stroke-linecap="round" opacity="0.9"/>
<line x1="300" y1="290" x2="190.9" y2="254.6" stroke="url(#gradMain)" stroke-width="10.85" stroke-linecap="round" opacity="0.9"/>
      <polygon points="345.6,316.4 300.0,342.7 254.4,316.4 254.4,263.6 300.0,237.3 345.6,263.6" fill="#0B1220" stroke="url(#gradMain)" stroke-width="7.75" />
      <polygon points="345.6,316.4 300.0,342.7 254.4,316.4 254.4,263.6 300.0,237.3 345.6,263.6" fill="url(#gradMain)" opacity="0.14" />
      <path d="M 271.0 290.0 L 300.0 259.4 L 329.0 290.0 L 300.0 320.6 Z"
            fill="url(#gradMain)" opacity="0.82"/>
      
        <g>
          <circle cx="300.0" cy="175.3" r="36.0" fill="url(#gradMain)" opacity="0.16"/>
          <circle cx="300.0" cy="175.3" r="23.2" fill="#0B1220" stroke="url(#gradMain)" stroke-width="4.65"/>
          <text x="300.0" y="184.6" text-anchor="middle" fill="#E5EEF9" style="font: 700 21.7px Inter, ui-sans-serif, system-ui;">D</text>
        </g>
        
        <g>
          <circle cx="409.1" cy="254.6" r="36.0" fill="url(#gradMain)" opacity="0.16"/>
          <circle cx="409.1" cy="254.6" r="23.2" fill="#0B1220" stroke="url(#gradMain)" stroke-width="4.65"/>
          <text x="409.1" y="263.9" text-anchor="middle" fill="#E5EEF9" style="font: 700 21.7px Inter, ui-sans-serif, system-ui;">S</text>
        </g>
        
        <g>
          <circle cx="367.4" cy="382.8" r="36.0" fill="url(#gradMain)" opacity="0.16"/>
          <circle cx="367.4" cy="382.8" r="23.2" fill="#0B1220" stroke="url(#gradMain)" stroke-width="4.65"/>
          <text x="367.4" y="392.1" text-anchor="middle" fill="#E5EEF9" style="font: 700 21.7px Inter, ui-sans-serif, system-ui;">C</text>
        </g>
        
        <g>
          <circle cx="232.6" cy="382.8" r="36.0" fill="url(#gradMain)" opacity="0.16"/>
          <circle cx="232.6" cy="382.8" r="23.2" fill="#0B1220" stroke="url(#gradMain)" stroke-width="4.65"/>
          <text x="232.6" y="392.1" text-anchor="middle" fill="#E5EEF9" style="font: 700 21.7px Inter, ui-sans-serif, system-ui;">J</text>
        </g>
        
        <g>
          <circle cx="190.9" cy="254.6" r="36.0" fill="url(#gradMain)" opacity="0.16"/>
          <circle cx="190.9" cy="254.6" r="23.2" fill="#0B1220" stroke="url(#gradMain)" stroke-width="4.65"/>
          <text x="190.9" y="263.9" text-anchor="middle" fill="#E5EEF9" style="font: 700 21.7px Inter, ui-sans-serif, system-ui;">Δ</text>
        </g>
        
    
    <text x="530" y="210" class="small" fill="#06B6D4">universal helm chart template</text>
    <text x="530" y="285" class="title" fill="#E5EEF9">Deploy anything.</text>
    <text x="530" y="355" class="title" fill="#E5EEF9">Stay opinionated.</text>
    <text x="530" y="418" class="subtitle" fill="#9FB0C8">A flexible chart for Deployments, StatefulSets, Jobs, CronJobs, DaemonSets,</text>
    <text x="530" y="452" class="subtitle" fill="#9FB0C8">services, ingress, and extra Kubernetes resources — all from values.</text>
    <g opacity="0.92">
      <rect x="530" y="500" width="170" height="44" rx="22" fill="#0F1B2E" stroke="#243244"/>
      <text x="615" y="529" text-anchor="middle" fill="#E5EEF9" style="font: 700 20px Inter, ui-sans-serif;">Deployment</text>
      <rect x="715" y="500" width="168" height="44" rx="22" fill="#0F1B2E" stroke="#243244"/>
      <text x="799" y="529" text-anchor="middle" fill="#E5EEF9" style="font: 700 20px Inter, ui-sans-serif;">StatefulSet</text>
      <rect x="898" y="500" width="116" height="44" rx="22" fill="#0F1B2E" stroke="#243244"/>
      <text x="956" y="529" text-anchor="middle" fill="#E5EEF9" style="font: 700 20px Inter, ui-sans-serif;">CronJob</text>
      <rect x="1029" y="500" width="130" height="44" rx="22" fill="#0F1B2E" stroke="#243244"/>
      <text x="1094" y="529" text-anchor="middle" fill="#E5EEF9" style="font: 700 20px Inter, ui-sans-serif;">DaemonSet</text>
    </g>
</svg>